# xmcd
# 
# Track frame offsets:
#     150
#     25037
#     49180
#     81200
#     135232
#     154045
#     188517
#     222907
#     240042
#     264240
#     290607
#     311065
#     327895
# 
# Disc length: 4632
# 
# Revision: 4
# Processed by: cddbd v1.5.2PL0 Copyright (c) Steve Scherf et al.
# Submitted via: fre:ac v1.0.31
# 
DISCID=a212160d
DTITLE=Ten Years After - The Anthology  - Disc 2
DYEAR=2002
DGENRE=Rock/Pop
TTITLE0=I Woke Up This Morning
TTITLE1=If You Should Love Me
TTITLE2=Good Morning Little Schoolgirl
TTITLE3=I'm Going Home
TTITLE4=Me and My Baby
TTITLE5=Love Like a Man
TTITLE6=50,000 Miles Beneath My Brain
TTITLE7=I'm Coming On
TTITLE8=My Baby Left Me
TTITLE9=One of These Days
TTITLE10=Here They Come
TTITLE11=I'd Love To Change The World
TTITLE12=Let the Sky Fall
EXTD=
EXTT0=
EXTT1=
EXTT2=
EXTT3=
EXTT4=
EXTT5=
EXTT6=
EXTT7=
EXTT8=
EXTT9=
EXTT10=
EXTT11=
EXTT12=
PLAYORDER=
